# Blender 5.0.1
# www.blender.org
o Cone
v -0.097545 -0.500000 -0.490393
v 0.000000 -0.500000 -0.500000
v 0.097545 -0.500000 -0.490393
v 0.191342 -0.500000 -0.461940
v -0.191342 -0.500000 -0.461940
v 0.277785 -0.500000 -0.415735
v -0.277785 -0.500000 -0.415735
v 0.353554 -0.500000 -0.353554
v -0.353554 -0.500000 -0.353554
v 0.415735 -0.500000 -0.277785
v -0.415735 -0.500000 -0.277785
v 0.461940 -0.500000 -0.191342
v -0.461940 -0.500000 -0.191342
v -0.490393 -0.500000 -0.097545
v 0.490393 -0.500000 -0.097545
v 0.500000 -0.500000 0.000000
v -0.500000 -0.500000 0.000000
v 0.490393 -0.500000 0.097545
v -0.490393 -0.500000 0.097545
v 0.461940 -0.500000 0.191342
v -0.461940 -0.500000 0.191342
v 0.415735 -0.500000 0.277785
v -0.415734 -0.500000 0.277785
v 0.353554 -0.500000 0.353554
v -0.353554 -0.500000 0.353554
v 0.277785 -0.500000 0.415735
v -0.277785 -0.500000 0.415735
v 0.191342 -0.500000 0.461940
v -0.191342 -0.500000 0.461940
v 0.097545 -0.500000 0.490393
v -0.097545 -0.500000 0.490393
v 0.000000 -0.500000 0.500000
v 0.000000 0.500000 0.000000
v -0.097545 -0.500000 -0.490393
v -0.191342 -0.500000 -0.461940
v -0.277785 -0.500000 -0.415735
v 0.000000 -0.500000 -0.500000
v -0.353554 -0.500000 -0.353554
v 0.097545 -0.500000 -0.490393
v -0.415735 -0.500000 -0.277785
v 0.191342 -0.500000 -0.461940
v -0.461940 -0.500000 -0.191342
v 0.277785 -0.500000 -0.415735
v -0.490393 -0.500000 -0.097545
v 0.353554 -0.500000 -0.353554
v -0.500000 -0.500000 0.000000
v 0.415735 -0.500000 -0.277785
v -0.490393 -0.500000 0.097545
v 0.461940 -0.500000 -0.191342
v -0.461940 -0.500000 0.191342
v 0.490393 -0.500000 -0.097545
v -0.415734 -0.500000 0.277785
v 0.500000 -0.500000 0.000000
v -0.353554 -0.500000 0.353554
v 0.490393 -0.500000 0.097545
v -0.277785 -0.500000 0.415735
v 0.461940 -0.500000 0.191342
v -0.191342 -0.500000 0.461940
v 0.415735 -0.500000 0.277785
v -0.097545 -0.500000 0.490393
v 0.353554 -0.500000 0.353554
v 0.000000 -0.500000 0.500000
v 0.277785 -0.500000 0.415735
v 0.097545 -0.500000 0.490393
v 0.191342 -0.500000 0.461940
vn -0.0000 -1.0000 -0.0000
vn -0.0000 1.0000 -0.0000
vn -0.1745 0.4472 -0.8772
vn -0.3423 0.4472 -0.8263
vn -0.4969 0.4472 -0.7437
vn -0.0000 0.4472 -0.8944
vn -0.6325 0.4472 -0.6325
vn 0.1745 0.4472 -0.8772
vn -0.7437 0.4472 -0.4969
vn 0.3423 0.4472 -0.8263
vn -0.8263 0.4472 -0.3423
vn 0.4969 0.4472 -0.7437
vn -0.8772 0.4472 -0.1745
vn 0.6325 0.4472 -0.6325
vn -0.8944 0.4472 -0.0000
vn 0.7437 0.4472 -0.4969
vn -0.8772 0.4472 0.1745
vn 0.8263 0.4472 -0.3423
vn -0.8263 0.4472 0.3423
vn 0.8772 0.4472 -0.1745
vn -0.7437 0.4472 0.4969
vn 0.8944 0.4472 -0.0000
vn -0.6325 0.4472 0.6325
vn 0.8772 0.4472 0.1745
vn -0.4969 0.4472 0.7437
vn 0.8263 0.4472 0.3423
vn -0.3423 0.4472 0.8263
vn 0.7437 0.4472 0.4969
vn -0.1745 0.4472 0.8772
vn 0.6325 0.4472 0.6325
vn -0.0000 0.4472 0.8944
vn 0.4969 0.4472 0.7437
vn 0.1745 0.4472 0.8772
vn 0.3423 0.4472 0.8263
vt 0.703178 0.485388
vt 0.750000 0.490000
vt 0.796822 0.485388
vt 0.841844 0.471731
vt 0.658156 0.471731
vt 0.883337 0.449553
vt 0.616663 0.449553
vt 0.919706 0.419706
vt 0.580294 0.419706
vt 0.949553 0.383337
vt 0.550447 0.383337
vt 0.971731 0.341844
vt 0.528269 0.341844
vt 0.514612 0.296822
vt 0.985388 0.296822
vt 0.990000 0.250000
vt 0.510000 0.250000
vt 0.985388 0.203178
vt 0.514612 0.203178
vt 0.971731 0.158156
vt 0.528269 0.158156
vt 0.949553 0.116663
vt 0.550447 0.116663
vt 0.919706 0.080294
vt 0.580294 0.080294
vt 0.883337 0.050447
vt 0.616663 0.050447
vt 0.841844 0.028269
vt 0.658156 0.028269
vt 0.796822 0.014612
vt 0.703178 0.014612
vt 0.750000 0.010000
vt 0.250000 0.250000
vt 0.203178 0.485388
vt 0.158156 0.471731
vt 0.116663 0.449553
vt 0.250000 0.490000
vt 0.080294 0.419706
vt 0.296822 0.485388
vt 0.050447 0.383337
vt 0.341844 0.471731
vt 0.028269 0.341844
vt 0.383337 0.449553
vt 0.014612 0.296822
vt 0.419706 0.419706
vt 0.010000 0.250000
vt 0.449553 0.383337
vt 0.014612 0.203178
vt 0.471731 0.341844
vt 0.028269 0.158156
vt 0.485388 0.296822
vt 0.050447 0.116663
vt 0.490000 0.250000
vt 0.080294 0.080294
vt 0.485388 0.203178
vt 0.116663 0.050447
vt 0.471731 0.158156
vt 0.158156 0.028269
vt 0.449553 0.116663
vt 0.203178 0.014612
vt 0.419706 0.080294
vt 0.250000 0.010000
vt 0.383337 0.050447
vt 0.296822 0.014612
vt 0.341844 0.028269
s 0
f 1/1/1 2/2/1 3/3/1
f 3/3/1 4/4/1 1/1/1
f 4/4/1 5/5/1 1/1/1
f 4/4/1 6/6/1 5/5/1
f 6/6/1 7/7/1 5/5/1
f 6/6/1 8/8/1 7/7/1
f 8/8/1 9/9/1 7/7/1
f 8/8/1 10/10/1 9/9/1
f 10/10/1 11/11/1 9/9/1
f 10/10/1 12/12/1 11/11/1
f 12/12/1 13/13/1 11/11/1
f 12/12/1 14/14/1 13/13/1
f 12/12/1 15/15/1 14/14/1
f 15/15/1 16/16/1 14/14/1
f 16/16/1 17/17/1 14/14/1
f 16/16/1 18/18/1 17/17/1
f 18/18/1 19/19/1 17/17/1
f 18/18/1 20/20/1 19/19/1
f 20/20/1 21/21/1 19/19/1
f 20/20/1 22/22/1 21/21/1
f 22/22/1 23/23/1 21/21/1
f 22/22/1 24/24/1 23/23/1
f 24/24/1 25/25/1 23/23/1
f 24/24/1 26/26/1 25/25/1
f 26/26/1 27/27/1 25/25/1
f 26/26/1 28/28/1 27/27/1
f 28/28/1 29/29/1 27/27/1
f 28/28/1 30/30/1 29/29/1
f 30/30/1 31/31/1 29/29/1
f 30/30/1 32/32/1 31/31/1
s 1
f 33/33/2 34/34/3 35/35/4
f 33/33/2 35/35/4 36/36/5
f 33/33/2 37/37/6 34/34/3
f 33/33/2 36/36/5 38/38/7
f 33/33/2 39/39/8 37/37/6
f 33/33/2 38/38/7 40/40/9
f 33/33/2 41/41/10 39/39/8
f 33/33/2 40/40/9 42/42/11
f 33/33/2 43/43/12 41/41/10
f 33/33/2 42/42/11 44/44/13
f 33/33/2 45/45/14 43/43/12
f 33/33/2 44/44/13 46/46/15
f 33/33/2 47/47/16 45/45/14
f 33/33/2 46/46/15 48/48/17
f 33/33/2 49/49/18 47/47/16
f 33/33/2 48/48/17 50/50/19
f 33/33/2 51/51/20 49/49/18
f 33/33/2 50/50/19 52/52/21
f 33/33/2 53/53/22 51/51/20
f 33/33/2 52/52/21 54/54/23
f 33/33/2 55/55/24 53/53/22
f 33/33/2 54/54/23 56/56/25
f 33/33/2 57/57/26 55/55/24
f 33/33/2 56/56/25 58/58/27
f 33/33/2 59/59/28 57/57/26
f 33/33/2 58/58/27 60/60/29
f 33/33/2 61/61/30 59/59/28
f 33/33/2 60/60/29 62/62/31
f 33/33/2 63/63/32 61/61/30
f 33/33/2 62/62/31 64/64/33
f 33/33/2 65/65/34 63/63/32
f 33/33/2 64/64/33 65/65/34
