# Blender 5.0.1
# www.blender.org
o CornerWedge
v -0.500000 0.500000 -0.500000
v -0.500000 -0.500000 0.500000
v 0.500000 -0.499056 0.500000
v -0.500000 -0.500000 0.500000
v -0.500000 0.500000 -0.500000
v -0.500000 -0.500000 -0.500000
v 0.500000 -0.499056 0.500000
v 0.500000 -0.499056 -0.500000
v -0.500000 0.500000 -0.500000
v 0.500000 -0.499056 -0.500000
v 0.500000 -0.500000 -0.500000
v -0.500000 -0.500000 -0.500000
v -0.500000 0.500000 -0.500000
v 0.500000 -0.500000 0.500000
v -0.500000 -0.500000 0.500000
v -0.500000 -0.500000 -0.500000
v 0.500000 -0.500000 -0.500000
vn -0.0007 0.7071 0.7071
vn -1.0000 -0.0000 -0.0000
vn 0.7068 0.7074 -0.0000
vn -0.0000 -0.0000 -1.0000
vn -0.0000 -1.0000 -0.0000
vt 0.625000 0.250000
vt 0.000000 0.000000
vt 0.125000 0.750000
vt 0.125000 0.500000
vt 0.625000 0.500000
vt 0.375000 0.500000
vt 0.375000 0.250000
vt 0.375000 0.750000
s 1
f 1/1/1 2/2/1 3/2/1
f 4/3/2 5/1/2 6/4/2
f 7/2/3 8/5/3 9/1/3
f 10/5/4 11/6/4 12/7/4
f 13/1/4 10/5/4 12/7/4
f 14/8/5 15/3/5 16/4/5
f 17/6/5 14/8/5 16/4/5
