# Blender 5.0.1
# www.blender.org
o QuarterPipe
v -0.500000 -0.500000 -0.500000
v -0.500000 -0.500000 0.500000
v -0.500000 -0.489821 -0.357685
v 0.500000 -0.500000 -0.500000
v 0.500000 -0.489821 -0.357685
v 0.500000 -0.500000 0.500000
v 0.500000 -0.040641 0.341253
v 0.500000 -0.154860 0.255749
v 0.500000 0.084585 0.409632
v 0.500000 0.218268 0.459493
v 0.500000 0.357685 0.489821
v 0.500000 0.500000 0.500000
v -0.500000 0.500000 0.500000
v -0.500000 -0.500000 0.500000
v 0.500000 -0.500000 0.500000
v 0.500000 0.500000 0.500000
v 0.500000 -0.500000 0.500000
v -0.500000 -0.500000 0.500000
v -0.500000 -0.500000 -0.500000
v 0.500000 -0.500000 -0.500000
v 0.500000 0.500000 0.500000
v 0.500000 0.357685 0.489821
v -0.500000 0.500000 0.500000
v -0.500000 0.357685 0.489821
v 0.500000 0.218268 0.459493
v -0.500000 0.218268 0.459493
v 0.500000 0.084585 0.409632
v -0.500000 0.084585 0.409632
v 0.500000 -0.040641 0.341253
v -0.500000 -0.040641 0.341253
v 0.500000 -0.154860 0.255749
v -0.500000 -0.154860 0.255749
v 0.500000 -0.154860 0.255749
v 0.500000 -0.255749 0.154860
v -0.500000 -0.154860 0.255749
v -0.500000 -0.255749 0.154860
v 0.500000 -0.341253 0.040641
v -0.500000 -0.341253 0.040641
v 0.500000 -0.409632 -0.084585
v -0.500000 -0.409632 -0.084585
v 0.500000 -0.459493 -0.218268
v -0.500000 -0.459493 -0.218268
v 0.500000 -0.489821 -0.357685
v -0.500000 -0.489821 -0.357685
v 0.500000 -0.500000 -0.500000
v -0.500000 -0.500000 -0.500000
v -0.500000 0.500000 0.500000
v -0.500000 0.357685 0.489821
v -0.500000 0.218268 0.459493
v -0.500000 0.084585 0.409632
v -0.500000 -0.040641 0.341253
v -0.500000 -0.154860 0.255749
v -0.500000 -0.459493 -0.218268
v -0.500000 -0.409632 -0.084585
v -0.500000 -0.341253 0.040641
v -0.500000 -0.255749 0.154860
v 0.500000 -0.459493 -0.218268
v 0.500000 -0.409632 -0.084585
v 0.500000 -0.341253 0.040641
v 0.500000 -0.255749 0.154860
vn -1.0000 -0.0000 -0.0000
vn 1.0000 -0.0000 -0.0000
vn -0.0000 -0.0000 1.0000
vn -0.0000 -1.0000 -0.0000
vn -0.0000 0.0713 -0.9975
vn -0.0000 0.1423 -0.9898
vn -0.0000 0.2817 -0.9595
vn -0.0000 0.4154 -0.9096
vn -0.0000 0.5406 -0.8413
vn -0.0000 0.6549 -0.7557
vn -0.0000 0.7557 -0.6549
vn -0.0000 0.8413 -0.5406
vn -0.0000 0.9096 -0.4154
vn -0.0000 0.9595 -0.2817
vn -0.0000 0.9898 -0.1423
vn -0.0000 0.9975 -0.0713
vt 0.375000 0.250000
vt 0.375000 0.000000
vt -5.176044 -5.176045
vt 0.375000 0.500000
vt 5.176075 -5.176074
vt 0.375000 0.750000
vt 1.520953 -1.520953
vt 1.346988 -1.346988
vt 1.901166 -1.901166
vt 2.709931 -2.709932
vt 5.176071 -5.176071
vt 0.625000 0.750000
vt 0.625000 1.000000
vt 0.375000 1.000000
vt 0.125000 0.750000
vt 0.125000 0.500000
vt 0.625000 0.714421
vt 0.875000 0.750000
vt 0.875000 0.714421
vt 0.625000 0.679567
vt 0.875000 0.679567
vt 0.625000 0.646146
vt 0.875000 0.646146
vt 0.625000 0.614840
vt 0.875000 0.614840
vt 0.625000 0.586285
vt 0.875000 0.586285
vt 0.625000 0.500000
vt 0.538715 0.500000
vt 0.625000 0.250000
vt 0.538715 0.250000
vt 0.510160 0.500000
vt 0.510160 0.250000
vt 0.478854 0.500000
vt 0.478854 0.250000
vt 0.445433 0.500000
vt 0.445433 0.250000
vt 0.410579 0.500000
vt 0.410579 0.250000
vt 0.625000 0.000000
vt -5.176071 -5.176070
vt -2.709931 -2.709932
vt -1.901165 -1.901165
vt -1.520953 -1.520953
vt -1.346989 -1.346988
vt -2.709929 -2.709929
vt -1.346989 -1.346989
vt 2.709930 -2.709931
vt 1.901165 -1.901165
vt 1.346989 -1.346988
s 0
f 1/1/1 2/2/1 3/3/1
f 4/4/2 5/5/2 6/6/2
f 7/7/2 6/6/2 8/8/2
f 9/9/2 6/6/2 7/7/2
f 10/10/2 6/6/2 9/9/2
f 11/11/2 6/6/2 10/10/2
f 12/12/2 6/6/2 11/11/2
f 13/13/3 14/14/3 15/6/3
f 16/12/3 13/13/3 15/6/3
f 17/6/4 18/15/4 19/16/4
f 20/4/4 17/6/4 19/16/4
s 1
f 21/12/5 22/17/6 23/18/5
f 22/17/6 24/19/6 23/18/5
f 22/17/6 25/20/7 24/19/6
f 25/20/7 26/21/7 24/19/6
f 25/20/7 27/22/8 26/21/7
f 27/22/8 28/23/8 26/21/7
f 27/22/8 29/24/9 28/23/8
f 29/24/9 30/25/9 28/23/8
f 29/24/9 31/26/10 30/25/9
f 31/26/10 32/27/10 30/25/9
f 33/28/10 34/29/11 35/30/10
f 34/29/11 36/31/11 35/30/10
f 34/29/11 37/32/12 36/31/11
f 37/32/12 38/33/12 36/31/11
f 37/32/12 39/34/13 38/33/12
f 39/34/13 40/35/13 38/33/12
f 39/34/13 41/36/14 40/35/13
f 41/36/14 42/37/14 40/35/13
f 41/36/14 43/38/15 42/37/14
f 43/38/15 44/39/15 42/37/14
f 43/38/15 45/4/16 44/39/15
f 45/4/16 46/1/16 44/39/15
s 0
f 47/40/1 48/41/1 2/2/1
f 48/41/1 49/42/1 2/2/1
f 49/42/1 50/43/1 2/2/1
f 50/43/1 51/44/1 2/2/1
f 51/44/1 52/45/1 2/2/1
f 3/3/1 2/2/1 53/46/1
f 53/46/1 2/2/1 54/43/1
f 54/43/1 2/2/1 55/44/1
f 56/47/1 55/44/1 2/2/1
f 52/45/1 56/47/1 2/2/1
f 5/5/2 57/48/2 6/6/2
f 57/48/2 58/49/2 6/6/2
f 58/49/2 59/7/2 6/6/2
f 59/7/2 60/50/2 6/6/2
f 60/50/2 8/8/2 6/6/2
