# Blender 5.0.1
# www.blender.org
o Truss
v 0.404813 0.297064 0.501482
v 0.404813 0.396668 0.501482
v 0.304103 0.396668 0.501482
v -0.303358 -0.403331 0.501482
v -0.405186 -0.312620 0.501482
v -0.405186 -0.403331 0.501482
v 0.404813 0.396668 0.401482
v 0.404813 0.297064 0.401482
v -0.303358 -0.403331 0.401482
v 0.304103 0.396668 0.401482
v -0.405186 -0.312620 0.401482
v -0.405186 -0.403331 0.401482
v 0.404813 0.297064 0.401482
v 0.404813 0.396668 0.401482
v 0.404813 0.396668 0.501482
v 0.404813 0.297064 0.501482
v -0.303358 -0.403331 0.401482
v 0.404813 0.297064 0.401482
v 0.404813 0.297064 0.501482
v -0.303358 -0.403331 0.501482
v -0.405186 -0.312620 0.401482
v -0.405186 -0.403331 0.401482
v -0.405186 -0.403331 0.501482
v -0.405186 -0.312620 0.501482
v -0.405186 -0.403331 0.401482
v -0.303358 -0.403331 0.401482
v -0.303358 -0.403331 0.501482
v -0.405186 -0.403331 0.501482
v 0.404813 0.396668 0.401482
v 0.304103 0.396668 0.401482
v 0.304103 0.396668 0.501482
v 0.404813 0.396668 0.501482
v 0.304103 0.396668 0.401482
v -0.405186 -0.312620 0.401482
v -0.405186 -0.312620 0.501482
v 0.304103 0.396668 0.501482
v 0.398517 -0.410000 -0.398517
v 0.398517 -0.308172 -0.398517
v -0.301877 0.400000 -0.398517
v 0.307807 -0.410000 -0.398517
v -0.401482 0.299289 -0.398517
v -0.401482 0.400000 -0.398517
v 0.398517 -0.308172 -0.498518
v 0.398517 -0.410000 -0.498518
v 0.307807 -0.410000 -0.498518
v -0.301877 0.400000 -0.498518
v -0.401482 0.299289 -0.498518
v -0.401482 0.400000 -0.498518
v -0.301877 0.400000 -0.498518
v -0.401482 0.400000 -0.498518
v -0.401482 0.400000 -0.398517
v -0.301877 0.400000 -0.398517
v 0.398517 -0.308172 -0.498518
v -0.301877 0.400000 -0.498518
v -0.301877 0.400000 -0.398517
v 0.398517 -0.308172 -0.398517
v 0.307807 -0.410000 -0.498518
v 0.398517 -0.410000 -0.498518
v 0.398517 -0.410000 -0.398517
v 0.307807 -0.410000 -0.398517
v 0.398517 -0.410000 -0.498518
v 0.398517 -0.308172 -0.498518
v 0.398517 -0.308172 -0.398517
v 0.398517 -0.410000 -0.398517
v -0.401482 0.400000 -0.498518
v -0.401482 0.299289 -0.498518
v -0.401482 0.299289 -0.398517
v -0.401482 0.400000 -0.398517
v -0.401482 0.299289 -0.498518
v 0.307807 -0.410000 -0.498518
v 0.307807 -0.410000 -0.398517
v -0.401482 0.299289 -0.398517
v 0.500000 0.500000 0.500000
v 0.400000 0.500000 0.500000
v 0.500000 0.400000 0.500000
v 0.400000 0.400000 0.500000
v -0.400000 0.500000 0.500000
v -0.400000 0.400000 0.500000
v 0.500000 -0.410000 0.500000
v 0.400000 -0.410000 0.500000
v 0.500000 -0.500000 0.500000
v 0.400000 -0.500000 0.500000
v 0.400000 0.500000 0.500000
v 0.500000 0.500000 0.500000
v 0.500000 0.500000 0.400000
v 0.400000 0.500000 0.400000
v 0.400000 0.500000 -0.400000
v 0.500000 0.500000 -0.400000
v -0.400000 0.500000 0.400000
v 0.400000 0.500000 0.500000
v -0.400000 0.500000 0.500000
v -0.400000 0.500000 -0.400000
v 0.400000 0.500000 -0.500000
v -0.400000 0.500000 -0.500000
v -0.500000 0.500000 -0.400000
v -0.500000 0.500000 0.400000
v -0.400000 0.500000 0.500000
v -0.500000 0.500000 0.500000
v 0.400000 0.400000 0.400000
v 0.400000 -0.410000 0.400000
v 0.400000 -0.410000 0.500000
v 0.400000 0.400000 0.500000
v 0.500000 -0.410000 0.500000
v 0.500000 -0.500000 0.500000
v 0.500000 -0.500000 0.400000
v 0.500000 -0.410000 0.400000
v 0.500000 0.400000 0.500000
v 0.500000 -0.410000 -0.400000
v 0.500000 -0.500000 -0.400000
v 0.500000 0.400000 0.400000
v 0.500000 0.500000 0.500000
v 0.500000 0.500000 0.400000
v 0.500000 0.500000 -0.400000
v 0.500000 0.400000 -0.400000
v 0.500000 0.400000 0.400000
v 0.500000 -0.410000 0.400000
v 0.400000 0.400000 0.400000
v 0.400000 -0.410000 0.400000
v 0.400000 -0.500000 0.400000
v -0.400000 -0.500000 0.400000
v -0.400000 -0.410000 0.400000
v -0.500000 -0.410000 0.400000
v -0.400000 0.400000 0.400000
v -0.500000 0.400000 0.400000
v -0.500000 0.400000 0.400000
v -0.500000 0.400000 0.500000
v -0.500000 0.500000 0.500000
v -0.500000 0.500000 0.400000
v -0.500000 -0.500000 0.500000
v -0.500000 -0.410000 0.500000
v -0.500000 -0.500000 0.400000
v -0.500000 -0.410000 0.400000
v -0.500000 -0.410000 -0.400000
v -0.500000 -0.500000 -0.400000
v 0.500000 -0.500000 -0.500000
v 0.400000 -0.500000 -0.500000
v 0.500000 -0.410000 -0.500000
v 0.400000 -0.410000 -0.500000
v -0.400000 -0.410000 -0.500000
v -0.400000 -0.500000 -0.500000
v -0.500000 -0.410000 -0.500000
v -0.500000 -0.500000 -0.500000
v -0.400000 -0.500000 0.500000
v -0.500000 -0.500000 0.500000
v -0.400000 -0.500000 0.400000
v -0.500000 -0.500000 0.400000
v -0.500000 -0.500000 -0.400000
v -0.400000 -0.500000 -0.400000
v -0.500000 -0.500000 -0.500000
v -0.400000 -0.500000 -0.500000
v 0.400000 -0.500000 -0.400000
v -0.400000 -0.500000 -0.500000
v 0.400000 -0.500000 -0.500000
v 0.500000 -0.500000 -0.400000
v 0.400000 -0.500000 0.400000
v 0.500000 -0.500000 0.400000
v 0.500000 -0.500000 0.500000
v 0.400000 -0.500000 0.500000
v -0.500000 0.500000 0.500000
v -0.500000 0.400000 0.500000
v -0.500000 -0.410000 0.500000
v -0.400000 -0.410000 0.500000
v -0.500000 -0.500000 0.500000
v -0.400000 -0.500000 0.500000
v -0.400000 0.400000 0.400000
v -0.400000 0.400000 0.500000
v -0.400000 -0.410000 0.500000
v -0.400000 -0.410000 0.400000
v -0.500000 0.400000 0.500000
v -0.500000 0.400000 0.400000
v -0.500000 -0.410000 0.400000
v -0.500000 -0.410000 0.500000
v -0.500000 0.400000 -0.500000
v -0.500000 0.500000 -0.500000
v -0.400000 0.500000 -0.500000
v -0.400000 0.400000 -0.500000
v 0.400000 0.500000 -0.500000
v 0.400000 0.400000 -0.500000
v 0.500000 -0.500000 -0.500000
v 0.400000 -0.500000 -0.500000
v 0.500000 0.500000 -0.500000
v 0.500000 0.400000 -0.500000
v 0.500000 -0.410000 -0.500000
v 0.500000 -0.500000 -0.500000
v 0.500000 0.500000 -0.500000
v 0.500000 0.400000 -0.500000
v 0.500000 -0.410000 -0.500000
v 0.400000 -0.410000 -0.500000
v 0.400000 0.500000 -0.500000
v 0.500000 0.500000 -0.500000
v 0.400000 0.400000 -0.400000
v 0.400000 0.400000 -0.500000
v 0.400000 -0.410000 -0.500000
v 0.400000 -0.410000 -0.400000
v 0.500000 -0.410000 -0.400000
v 0.500000 0.400000 -0.400000
v 0.400000 0.400000 -0.400000
v 0.400000 -0.410000 -0.400000
v -0.400000 -0.500000 -0.400000
v 0.400000 -0.500000 -0.400000
v -0.400000 -0.410000 -0.400000
v -0.500000 -0.410000 -0.400000
v -0.400000 0.400000 -0.400000
v -0.500000 0.400000 -0.400000
v -0.500000 0.400000 -0.400000
v -0.500000 0.500000 -0.400000
v -0.500000 0.500000 -0.500000
v -0.500000 0.400000 -0.500000
v -0.500000 -0.410000 -0.500000
v -0.500000 -0.500000 -0.500000
v -0.500000 -0.500000 -0.400000
v -0.400000 0.500000 -0.500000
v -0.500000 0.500000 -0.500000
v -0.400000 0.400000 -0.400000
v -0.400000 -0.410000 -0.400000
v -0.400000 -0.410000 -0.500000
v -0.400000 0.400000 -0.500000
v -0.400000 0.400000 -0.500000
v -0.400000 -0.410000 -0.500000
v -0.500000 -0.410000 -0.500000
v -0.500000 0.400000 -0.500000
v -0.500000 0.400000 -0.500000
v -0.500000 -0.410000 -0.500000
v -0.500000 -0.410000 -0.400000
v -0.500000 0.400000 -0.400000
v 0.400000 0.400000 -0.400000
v 0.400000 0.400000 0.400000
v 0.400000 0.500000 0.400000
v 0.400000 0.500000 -0.400000
v -0.400000 0.400000 0.400000
v -0.400000 0.500000 0.400000
v 0.400000 0.500000 0.400000
v 0.400000 0.400000 0.400000
v -0.500000 0.500000 0.400000
v -0.500000 0.500000 -0.400000
v -0.400000 -0.500000 0.500000
v 0.400000 -0.500000 0.500000
v 0.400000 -0.410000 -0.500000
v -0.400000 -0.410000 -0.500000
v 0.400000 -0.410000 -0.400000
v -0.400000 -0.410000 -0.400000
v -0.500000 -0.410000 -0.400000
v -0.400000 -0.410000 0.400000
v -0.500000 -0.410000 0.400000
v 0.500000 -0.410000 -0.400000
v 0.400000 -0.410000 0.400000
v 0.500000 -0.410000 0.400000
v -0.400000 -0.410000 0.500000
v 0.400000 -0.410000 0.500000
v -0.400000 0.400000 -0.400000
v -0.400000 0.500000 -0.400000
v -0.400000 0.500000 0.400000
v -0.400000 0.400000 0.400000
v -0.400000 0.400000 -0.400000
v 0.400000 0.400000 -0.400000
v 0.400000 0.500000 -0.400000
v -0.400000 0.500000 -0.400000
v 0.400000 0.400000 0.500000
v -0.400000 0.400000 0.500000
v 0.400000 0.400000 0.400000
v -0.400000 0.400000 0.400000
v 0.500000 0.400000 -0.400000
v 0.500000 0.400000 0.400000
v 0.400000 0.400000 -0.400000
v -0.500000 0.400000 0.400000
v -0.400000 0.400000 -0.400000
v -0.500000 0.400000 -0.400000
v -0.400000 0.400000 -0.500000
v 0.400000 0.400000 -0.500000
v 0.400000 -0.500000 -0.400000
v 0.400000 -0.500000 0.400000
v -0.400000 -0.500000 -0.400000
v -0.400000 -0.500000 0.400000
v -0.500000 -0.403331 -0.403704
v -0.500000 -0.403331 -0.301875
v -0.500000 0.297064 0.406296
v -0.500000 -0.312620 -0.403704
v -0.500000 0.396668 0.305586
v -0.500000 0.396668 0.406296
v -0.400000 -0.403331 -0.301875
v -0.400000 -0.403331 -0.403704
v -0.400000 -0.312620 -0.403704
v -0.400000 0.297064 0.406296
v -0.400000 0.396668 0.305586
v -0.400000 0.396668 0.406296
v -0.400000 0.297064 0.406296
v -0.400000 0.396668 0.406296
v -0.500000 0.396668 0.406296
v -0.500000 0.297064 0.406296
v -0.400000 -0.403331 -0.301875
v -0.400000 0.297064 0.406296
v -0.500000 0.297064 0.406296
v -0.500000 -0.403331 -0.301875
v -0.400000 -0.312620 -0.403704
v -0.400000 -0.403331 -0.403704
v -0.500000 -0.403331 -0.403704
v -0.500000 -0.312620 -0.403704
v -0.400000 -0.403331 -0.403704
v -0.400000 -0.403331 -0.301875
v -0.500000 -0.403331 -0.301875
v -0.500000 -0.403331 -0.403704
v -0.400000 0.396668 0.406296
v -0.400000 0.396668 0.305586
v -0.500000 0.396668 0.305586
v -0.500000 0.396668 0.406296
v -0.400000 0.396668 0.305586
v -0.400000 -0.312620 -0.403704
v -0.500000 -0.312620 -0.403704
v -0.500000 0.396668 0.305586
v 0.400000 -0.410000 0.309289
v 0.400000 -0.410000 0.400000
v 0.400000 -0.308172 0.400000
v 0.400000 0.299289 -0.400000
v 0.400000 0.400000 -0.300395
v 0.400000 0.400000 -0.400000
v 0.500000 -0.410000 0.400000
v 0.500000 -0.410000 0.309289
v 0.500000 0.299289 -0.400000
v 0.500000 -0.308172 0.400000
v 0.500000 0.400000 -0.300395
v 0.500000 0.400000 -0.400000
v 0.500000 0.400000 -0.300395
v 0.500000 0.400000 -0.400000
v 0.400000 0.400000 -0.400000
v 0.400000 0.400000 -0.300395
v 0.500000 -0.308172 0.400000
v 0.500000 0.400000 -0.300395
v 0.400000 0.400000 -0.300395
v 0.400000 -0.308172 0.400000
v 0.500000 -0.410000 0.309289
v 0.500000 -0.410000 0.400000
v 0.400000 -0.410000 0.400000
v 0.400000 -0.410000 0.309289
v 0.500000 -0.410000 0.400000
v 0.500000 -0.308172 0.400000
v 0.400000 -0.308172 0.400000
v 0.400000 -0.410000 0.400000
v 0.500000 0.400000 -0.400000
v 0.500000 0.299289 -0.400000
v 0.400000 0.299289 -0.400000
v 0.400000 0.400000 -0.400000
v 0.500000 0.299289 -0.400000
v 0.500000 -0.410000 0.309289
v 0.400000 -0.410000 0.309289
v 0.400000 0.299289 -0.400000
vn -0.0000 -0.0000 1.0000
vn -0.0000 -0.0000 -1.0000
vn 1.0000 -0.0000 -0.0000
vn 0.7032 -0.7110 -0.0000
vn -1.0000 -0.0000 -0.0000
vn -0.0000 -1.0000 -0.0000
vn -0.0000 1.0000 -0.0000
vn -0.7071 0.7071 -0.0000
vn 0.7110 0.7032 -0.0000
vn -0.7071 -0.7071 -0.0000
vn -0.0000 -0.7110 0.7032
vn -0.0000 0.7071 -0.7071
vn -0.0000 0.7032 0.7110
vn -0.0000 -0.7071 -0.7071
vt 0.110585 0.000000
vt 0.055751 0.498614
vt 0.111813 1.000000
vt 0.888187 0.000000
vt 0.899290 1.000000
vt 0.947167 0.527489
vt 0.625000 0.750000
vt 0.625000 0.875000
vt 0.600000 0.750000
vt 0.600000 0.875000
vt 0.397500 0.750000
vt 0.397500 0.875000
vt 0.375000 0.750000
vt 0.375000 0.875000
vt 0.750000 0.750000
vt 0.625000 0.625000
vt 0.750000 0.625000
vt 0.700000 0.625000
vt 0.295000 0.625000
vt 0.375000 0.625000
vt 0.397500 0.625000
vt 0.600000 0.625000
vt 0.250000 0.625000
vt 0.250000 0.750000
vt 0.000000 0.000000
s 0
f 1/1/1 2/2/1 3/3/1
f 3/3/1 4/4/1 1/1/1
f 3/3/1 5/5/1 4/4/1
f 5/5/1 6/6/1 4/4/1
f 7/2/2 8/1/2 9/4/2
f 9/4/2 10/3/2 7/2/2
f 9/4/2 11/5/2 10/3/2
f 9/4/2 12/6/2 11/5/2
f 13/1/3 14/2/3 15/2/3
f 16/1/3 13/1/3 15/2/3
f 17/4/4 18/1/4 19/1/4
f 20/4/4 17/4/4 19/1/4
f 21/5/5 22/6/5 23/6/5
f 24/5/5 21/5/5 23/6/5
f 25/6/6 26/4/6 27/4/6
f 28/6/6 25/6/6 27/4/6
f 29/2/7 30/3/7 31/3/7
f 32/2/7 29/2/7 31/3/7
f 33/3/8 34/5/8 35/5/8
f 36/3/8 33/3/8 35/5/8
f 37/6/1 38/4/1 39/1/1
f 39/1/1 40/5/1 37/6/1
f 39/1/1 41/3/1 40/5/1
f 39/1/1 42/2/1 41/3/1
f 43/4/2 44/6/2 45/5/2
f 45/5/2 46/1/2 43/4/2
f 45/5/2 47/3/2 46/1/2
f 47/3/2 48/2/2 46/1/2
f 49/1/7 50/2/7 51/2/7
f 52/1/7 49/1/7 51/2/7
f 53/4/9 54/1/9 55/1/9
f 56/4/9 53/4/9 55/1/9
f 57/5/6 58/6/6 59/6/6
f 60/5/6 57/5/6 59/6/6
f 61/6/3 62/4/3 63/4/3
f 64/6/3 61/6/3 63/4/3
f 65/2/5 66/3/5 67/3/5
f 68/2/5 65/2/5 67/3/5
f 69/3/10 70/5/10 71/5/10
f 72/3/10 69/3/10 71/5/10
f 73/7/1 74/8/1 75/9/1
f 74/8/1 76/10/1 75/9/1
f 74/8/1 77/8/1 76/10/1
f 77/8/1 78/10/1 76/10/1
f 75/9/1 76/10/1 79/11/1
f 76/10/1 80/12/1 79/11/1
f 79/11/1 80/12/1 81/13/1
f 80/12/1 82/14/1 81/13/1
f 83/15/7 84/7/7 85/16/7
f 86/17/7 83/15/7 85/16/7
f 87/17/7 86/17/7 85/16/7
f 88/16/7 87/17/7 85/16/7
f 86/17/7 89/17/7 90/8/7
f 89/17/7 91/8/7 90/8/7
f 92/17/7 87/17/7 93/8/7
f 94/17/7 92/17/7 93/8/7
f 92/17/7 95/16/7 96/16/7
f 89/17/7 92/17/7 96/16/7
f 97/15/7 89/17/7 96/16/7
f 98/7/7 97/15/7 96/16/7
f 99/18/5 100/19/5 101/12/5
f 102/10/5 99/18/5 101/12/5
f 103/11/3 104/13/3 105/20/3
f 106/21/3 103/11/3 105/20/3
f 107/9/3 103/11/3 106/21/3
f 108/21/3 106/21/3 105/20/3
f 109/20/3 108/21/3 105/20/3
f 110/22/3 107/9/3 106/21/3
f 111/7/3 107/9/3 110/22/3
f 112/16/3 111/7/3 110/22/3
f 113/16/3 112/16/3 110/22/3
f 114/22/3 113/16/3 110/22/3
f 115/22/2 116/21/2 117/18/2
f 116/21/2 118/19/2 117/18/2
f 119/23/2 120/23/2 118/19/2
f 120/23/2 121/19/2 118/19/2
f 121/19/2 122/21/2 123/18/2
f 122/21/2 124/22/2 123/18/2
f 125/18/5 126/10/5 127/15/5
f 128/17/5 125/18/5 127/15/5
f 129/14/5 130/12/5 131/23/5
f 130/12/5 132/19/5 131/23/5
f 131/23/5 132/19/5 133/19/5
f 134/20/5 131/23/5 133/19/5
f 135/20/2 136/23/2 137/21/2
f 136/23/2 138/19/2 137/21/2
f 138/19/2 136/23/2 139/19/2
f 136/23/2 140/23/2 139/19/2
f 139/19/2 140/23/2 141/21/2
f 140/23/2 142/20/2 141/21/2
f 143/24/6 144/13/6 145/23/6
f 144/13/6 146/20/6 145/23/6
f 146/20/6 147/20/6 145/23/6
f 147/20/6 148/23/6 145/23/6
f 147/20/6 149/13/6 148/23/6
f 149/13/6 150/24/6 148/23/6
f 151/23/6 148/23/6 152/23/6
f 153/23/6 151/23/6 152/23/6
f 151/23/6 154/20/6 155/23/6
f 154/20/6 156/20/6 155/23/6
f 156/20/6 157/13/6 155/23/6
f 157/13/6 158/24/6 155/23/6
f 145/23/6 155/23/6 158/24/6
f 143/24/6 145/23/6 158/24/6
f 77/8/1 159/7/1 160/9/1
f 78/10/1 77/8/1 160/9/1
f 78/10/1 160/9/1 161/11/1
f 162/12/1 78/10/1 161/11/1
f 162/12/1 161/11/1 163/13/1
f 164/14/1 162/12/1 163/13/1
f 165/18/3 166/10/3 167/12/3
f 168/19/3 165/18/3 167/12/3
f 169/9/5 170/22/5 171/21/5
f 172/11/5 169/9/5 171/21/5
f 173/22/2 174/16/2 175/17/2
f 176/18/2 173/22/2 175/17/2
f 176/18/2 175/17/2 177/8/2
f 178/10/2 176/18/2 177/8/2
f 179/13/6 154/20/6 151/23/6
f 180/24/6 179/13/6 151/23/6
f 181/7/3 113/16/3 114/22/3
f 182/9/3 181/7/3 114/22/3
f 182/9/3 114/22/3 108/21/3
f 183/11/3 182/9/3 108/21/3
f 183/11/3 108/21/3 109/20/3
f 184/13/3 183/11/3 109/20/3
f 177/8/2 185/7/2 186/9/2
f 178/10/2 177/8/2 186/9/2
f 178/10/2 186/9/2 187/11/2
f 188/12/2 178/10/2 187/11/2
f 189/15/7 87/17/7 88/16/7
f 190/7/7 189/15/7 88/16/7
f 191/18/5 192/10/5 193/12/5
f 194/19/5 191/18/5 193/12/5
f 195/21/1 196/22/1 197/18/1
f 198/19/1 195/21/1 197/18/1
f 199/23/1 200/23/1 198/19/1
f 201/19/1 199/23/1 198/19/1
f 202/21/1 201/19/1 203/18/1
f 204/22/1 202/21/1 203/18/1
f 205/18/5 206/17/5 207/15/5
f 208/10/5 205/18/5 207/15/5
f 209/12/5 210/14/5 211/23/5
f 133/19/5 209/12/5 211/23/5
f 212/15/7 213/7/7 95/16/7
f 92/17/7 212/15/7 95/16/7
f 214/18/3 215/19/3 216/12/3
f 217/10/3 214/18/3 216/12/3
f 218/10/2 219/12/2 220/11/2
f 221/9/2 218/10/2 220/11/2
f 222/9/5 223/11/5 224/21/5
f 225/22/5 222/9/5 224/21/5
f 226/25/5 227/25/5 228/17/5
f 229/17/5 226/25/5 228/17/5
f 230/25/2 231/25/2 232/17/2
f 233/25/2 230/25/2 232/17/2
f 205/18/5 125/18/5 234/16/5
f 235/16/5 205/18/5 234/16/5
f 80/12/1 162/12/1 236/24/1
f 237/24/1 80/12/1 236/24/1
f 238/19/7 239/12/7 240/19/7
f 239/12/7 241/19/7 240/19/7
f 241/19/7 242/21/7 243/19/7
f 242/21/7 244/19/7 243/19/7
f 245/21/7 240/19/7 246/19/7
f 247/21/7 245/21/7 246/19/7
f 243/19/7 248/12/7 246/19/7
f 248/12/7 249/12/7 246/19/7
f 250/25/3 251/17/3 252/17/3
f 253/25/3 250/25/3 252/17/3
f 254/25/1 255/25/1 256/17/1
f 257/17/1 254/25/1 256/17/1
f 258/10/6 259/10/6 260/25/6
f 259/10/6 261/25/6 260/25/6
f 262/22/6 263/22/6 260/25/6
f 264/25/6 262/22/6 260/25/6
f 261/25/6 265/22/6 266/25/6
f 265/22/6 267/18/6 266/25/6
f 268/10/6 269/10/6 264/25/6
f 266/25/6 268/10/6 264/25/6
f 270/23/5 271/23/5 100/19/5
f 194/19/5 270/23/5 100/19/5
f 272/23/3 215/19/3 168/19/3
f 273/23/3 272/23/3 168/19/3
f 274/6/5 275/4/5 276/1/5
f 276/1/5 277/5/5 274/6/5
f 276/1/5 278/3/5 277/5/5
f 276/1/5 279/2/5 278/3/5
f 280/4/3 281/6/3 282/5/3
f 282/5/3 283/1/3 280/4/3
f 282/5/3 284/3/3 283/1/3
f 284/3/3 285/2/3 283/1/3
f 286/1/1 287/2/1 288/2/1
f 289/1/1 286/1/1 288/2/1
f 290/4/11 291/1/11 292/1/11
f 293/4/11 290/4/11 292/1/11
f 294/5/2 295/6/2 296/6/2
f 297/5/2 294/5/2 296/6/2
f 298/6/6 299/4/6 300/4/6
f 301/6/6 298/6/6 300/4/6
f 302/2/7 303/3/7 304/3/7
f 305/2/7 302/2/7 304/3/7
f 306/3/12 307/5/12 308/5/12
f 309/3/12 306/3/12 308/5/12
f 310/5/5 311/6/5 312/4/5
f 312/4/5 313/3/5 310/5/5
f 312/4/5 314/1/5 313/3/5
f 314/1/5 315/2/5 313/3/5
f 316/6/3 317/5/3 318/3/3
f 318/3/3 319/4/3 316/6/3
f 318/3/3 320/1/3 319/4/3
f 318/3/3 321/2/3 320/1/3
f 322/1/7 323/2/7 324/2/7
f 325/1/7 322/1/7 324/2/7
f 326/4/13 327/1/13 328/1/13
f 329/4/13 326/4/13 328/1/13
f 330/5/6 331/6/6 332/6/6
f 333/5/6 330/5/6 332/6/6
f 334/6/1 335/4/1 336/4/1
f 337/6/1 334/6/1 336/4/1
f 338/2/2 339/3/2 340/3/2
f 341/2/2 338/2/2 340/3/2
f 342/3/14 343/5/14 344/5/14
f 345/3/14 342/3/14 344/5/14
