# Blender 5.0.1
# www.blender.org
o TrussFrame
v 0.500000 0.500000 0.500000
v 0.400000 0.500000 0.500000
v 0.500000 0.400000 0.500000
v 0.400000 0.400000 0.500000
v 0.500000 -0.410000 0.500000
v 0.000000 0.500000 0.500000
v 0.000000 0.400000 0.500000
v 0.400000 -0.410000 0.500000
v 0.500000 -0.500000 0.500000
v 0.400000 -0.500000 0.500000
v -0.400000 0.400000 0.500000
v 0.000000 -0.410000 0.500000
v 0.000000 -0.500000 0.500000
v -0.400000 -0.500000 0.500000
v -0.400000 -0.410000 0.500000
v -0.500000 -0.500000 0.500000
v -0.500000 -0.410000 0.500000
v -0.400000 0.500000 0.500000
v -0.500000 0.400000 0.500000
v -0.500000 0.500000 0.500000
v 0.400000 0.500000 0.500000
v 0.500000 0.500000 0.500000
v 0.500000 0.500000 0.400000
v 0.400000 0.500000 0.400000
v 0.500000 0.500000 0.000000
v 0.400000 0.500000 0.000000
v 0.000000 0.500000 0.400000
v 0.000000 0.500000 0.500000
v 0.400000 0.500000 -0.400000
v -0.400000 0.500000 0.500000
v 0.500000 0.500000 -0.400000
v -0.400000 0.500000 0.400000
v 0.400000 0.500000 -0.500000
v 0.500000 0.500000 -0.500000
v 0.000000 0.500000 -0.400000
v 0.000000 0.500000 -0.500000
v -0.400000 0.500000 -0.500000
v -0.400000 0.500000 -0.400000
v -0.500000 0.500000 0.400000
v -0.500000 0.500000 0.500000
v -0.500000 0.500000 0.000000
v -0.400000 0.500000 0.000000
v -0.500000 0.500000 -0.400000
v -0.500000 0.500000 -0.500000
v 0.400000 0.400000 0.400000
v 0.400000 -0.410000 0.400000
v 0.400000 -0.410000 0.500000
v 0.400000 0.400000 0.500000
v 0.500000 -0.410000 0.500000
v 0.500000 -0.500000 0.500000
v 0.500000 -0.500000 0.400000
v 0.500000 -0.410000 0.400000
v 0.500000 0.400000 0.500000
v 0.500000 -0.500000 0.000000
v 0.500000 -0.410000 0.000000
v 0.500000 0.400000 0.400000
v 0.500000 0.500000 0.500000
v 0.500000 0.500000 0.400000
v 0.500000 -0.410000 -0.400000
v 0.500000 0.400000 0.000000
v 0.500000 0.500000 0.000000
v 0.500000 0.500000 -0.400000
v 0.500000 0.400000 -0.400000
v 0.500000 0.500000 -0.500000
v 0.500000 0.400000 -0.500000
v 0.500000 -0.500000 -0.400000
v 0.500000 -0.410000 -0.500000
v 0.500000 -0.500000 -0.500000
v 0.500000 0.400000 0.400000
v 0.500000 -0.410000 0.400000
v 0.400000 0.400000 0.400000
v 0.400000 -0.410000 0.400000
v 0.000000 0.400000 0.400000
v 0.400000 0.500000 0.400000
v 0.000000 0.500000 0.400000
v -0.400000 0.500000 0.400000
v -0.400000 0.400000 0.400000
v -0.500000 -0.410000 0.400000
v -0.500000 0.400000 0.400000
v -0.400000 -0.410000 0.400000
v 0.400000 -0.500000 0.400000
v 0.000000 -0.500000 0.400000
v -0.400000 -0.500000 0.400000
v 0.000000 -0.410000 0.400000
v 0.400000 0.500000 0.400000
v 0.400000 0.500000 0.000000
v 0.400000 0.400000 0.000000
v 0.400000 0.400000 -0.400000
v 0.400000 0.500000 -0.400000
v 0.400000 0.400000 0.500000
v 0.000000 0.400000 0.500000
v 0.400000 0.400000 0.400000
v 0.000000 0.400000 0.400000
v -0.400000 0.400000 0.400000
v -0.400000 0.400000 0.500000
v 0.400000 0.400000 0.000000
v 0.500000 0.400000 0.400000
v 0.500000 0.400000 0.000000
v 0.500000 0.400000 -0.400000
v 0.400000 0.400000 -0.400000
v -0.400000 0.400000 0.000000
v -0.500000 0.400000 0.400000
v -0.500000 0.400000 0.000000
v -0.500000 0.400000 -0.400000
v -0.400000 0.400000 -0.400000
v 0.000000 0.400000 -0.500000
v 0.400000 0.400000 -0.500000
v -0.400000 0.400000 -0.500000
v 0.000000 0.400000 -0.400000
v 0.500000 -0.410000 0.400000
v 0.500000 -0.410000 0.000000
v 0.400000 -0.410000 0.400000
v 0.400000 -0.410000 0.000000
v 0.400000 -0.410000 -0.400000
v 0.500000 -0.410000 -0.400000
v 0.000000 -0.410000 0.400000
v 0.400000 -0.410000 0.500000
v 0.000000 -0.410000 0.500000
v -0.400000 -0.410000 0.500000
v -0.400000 -0.410000 0.400000
v 0.000000 -0.410000 -0.400000
v 0.400000 -0.410000 -0.500000
v 0.000000 -0.410000 -0.500000
v -0.400000 -0.410000 -0.500000
v -0.400000 -0.410000 -0.400000
v -0.500000 -0.410000 0.000000
v -0.500000 -0.410000 0.400000
v -0.500000 -0.410000 -0.400000
v -0.400000 -0.410000 0.000000
v 0.400000 -0.410000 0.000000
v 0.400000 -0.500000 0.400000
v 0.400000 -0.500000 0.000000
v 0.400000 -0.500000 -0.400000
v 0.400000 -0.410000 -0.400000
v -0.400000 0.400000 0.400000
v -0.400000 0.400000 0.500000
v -0.400000 -0.410000 0.500000
v -0.400000 -0.410000 0.400000
v -0.500000 -0.500000 0.500000
v -0.500000 -0.410000 0.500000
v -0.500000 -0.500000 0.400000
v -0.500000 -0.410000 0.400000
v -0.500000 0.400000 0.500000
v -0.500000 -0.500000 0.000000
v -0.500000 -0.410000 0.000000
v -0.500000 0.400000 0.400000
v -0.500000 0.500000 0.500000
v -0.500000 0.500000 0.400000
v -0.500000 -0.410000 -0.400000
v -0.500000 0.400000 0.000000
v -0.500000 0.500000 0.000000
v -0.500000 0.500000 -0.400000
v -0.500000 0.400000 -0.400000
v -0.500000 0.500000 -0.500000
v -0.500000 0.400000 -0.500000
v -0.500000 -0.500000 -0.400000
v -0.500000 -0.410000 -0.500000
v -0.500000 -0.500000 -0.500000
v -0.400000 0.500000 0.000000
v -0.400000 0.500000 0.400000
v -0.400000 0.400000 0.000000
v -0.400000 0.400000 -0.400000
v -0.400000 0.500000 -0.400000
v 0.000000 0.500000 0.400000
v 0.000000 0.500000 0.500000
v 0.000000 0.400000 0.500000
v 0.000000 0.400000 0.400000
v 0.000000 -0.410000 0.400000
v 0.000000 -0.410000 0.500000
v 0.000000 -0.500000 0.500000
v 0.000000 -0.500000 0.400000
v -0.400000 -0.410000 0.000000
v -0.400000 -0.500000 0.400000
v -0.400000 -0.500000 0.000000
v -0.400000 -0.500000 -0.400000
v -0.400000 -0.410000 -0.400000
v 0.400000 0.500000 -0.500000
v 0.500000 0.500000 -0.500000
v 0.500000 0.400000 -0.500000
v 0.400000 0.400000 -0.500000
v 0.500000 -0.410000 -0.500000
v 0.000000 0.500000 -0.500000
v 0.000000 0.400000 -0.500000
v 0.400000 -0.410000 -0.500000
v 0.500000 -0.500000 -0.500000
v 0.400000 -0.500000 -0.500000
v -0.400000 0.400000 -0.500000
v 0.000000 -0.410000 -0.500000
v 0.000000 -0.500000 -0.500000
v -0.400000 -0.500000 -0.500000
v -0.400000 -0.410000 -0.500000
v -0.500000 -0.500000 -0.500000
v -0.500000 -0.410000 -0.500000
v -0.400000 0.500000 -0.500000
v -0.500000 0.400000 -0.500000
v -0.500000 0.500000 -0.500000
v 0.400000 0.400000 -0.500000
v 0.400000 -0.410000 -0.500000
v 0.500000 -0.410000 -0.400000
v 0.500000 0.400000 -0.400000
v 0.400000 0.400000 -0.400000
v 0.400000 -0.410000 -0.400000
v 0.000000 0.400000 -0.400000
v 0.400000 0.500000 -0.400000
v 0.000000 0.500000 -0.400000
v -0.400000 0.500000 -0.400000
v -0.400000 0.400000 -0.400000
v -0.500000 0.400000 -0.400000
v -0.500000 -0.410000 -0.400000
v -0.400000 -0.410000 -0.400000
v 0.000000 -0.500000 -0.400000
v 0.400000 -0.500000 -0.400000
v -0.400000 -0.500000 -0.400000
v 0.000000 -0.410000 -0.400000
v 0.500000 0.400000 0.000000
v 0.500000 0.500000 0.000000
v 0.400000 0.500000 0.000000
v 0.400000 0.400000 0.000000
v 0.500000 -0.500000 0.000000
v 0.500000 -0.410000 0.000000
v 0.400000 -0.410000 0.000000
v 0.400000 -0.500000 0.000000
v -0.400000 -0.410000 -0.500000
v -0.400000 0.400000 -0.500000
v -0.500000 0.400000 0.000000
v -0.400000 0.400000 0.000000
v -0.400000 0.500000 0.000000
v -0.500000 0.500000 0.000000
v 0.000000 0.500000 -0.400000
v 0.000000 0.400000 -0.400000
v 0.000000 0.400000 -0.500000
v 0.000000 0.500000 -0.500000
v 0.000000 -0.410000 -0.400000
v 0.000000 -0.500000 -0.400000
v 0.000000 -0.500000 -0.500000
v 0.000000 -0.410000 -0.500000
v -0.500000 -0.500000 0.000000
v -0.400000 -0.500000 0.000000
v -0.400000 -0.410000 0.000000
v -0.500000 -0.410000 0.000000
v 0.000000 -0.500000 -0.400000
v 0.000000 -0.500000 -0.500000
v 0.400000 -0.500000 -0.400000
v -0.400000 -0.500000 -0.400000
v 0.400000 -0.500000 -0.500000
v 0.500000 -0.500000 -0.500000
v 0.500000 -0.500000 -0.400000
v -0.400000 -0.500000 -0.500000
v -0.500000 -0.500000 -0.500000
v -0.500000 -0.500000 -0.400000
v 0.400000 -0.500000 0.000000
v 0.500000 -0.500000 0.000000
v 0.500000 -0.500000 0.400000
v -0.400000 -0.500000 0.000000
v -0.500000 -0.500000 0.000000
v -0.500000 -0.500000 0.400000
v 0.400000 -0.500000 0.400000
v -0.400000 -0.500000 0.400000
v 0.500000 -0.500000 0.500000
v 0.400000 -0.500000 0.500000
v -0.500000 -0.500000 0.500000
v -0.400000 -0.500000 0.500000
v 0.000000 -0.500000 0.500000
v 0.000000 -0.500000 0.400000
vn -0.0000 -0.0000 1.0000
vn -0.0000 1.0000 -0.0000
vn -1.0000 -0.0000 -0.0000
vn 1.0000 -0.0000 -0.0000
vn -0.0000 -0.0000 -1.0000
vn -0.0000 -1.0000 -0.0000
vt 0.625000 0.750000
vt 0.625000 0.875000
vt 0.600000 0.750000
vt 0.600000 0.875000
vt 0.397500 0.750000
vt 0.397500 0.875000
vt 0.375000 0.750000
vt 0.375000 0.875000
vt 0.750000 0.750000
vt 0.625000 0.625000
vt 0.750000 0.625000
vt 0.700000 0.625000
vt 0.295000 0.625000
vt 0.375000 0.625000
vt 0.397500 0.625000
vt 0.600000 0.625000
vt 0.250000 0.625000
vt 0.250000 0.750000
s 0
f 1/1/1 2/2/1 3/3/1
f 2/2/1 4/4/1 3/3/1
f 3/3/1 4/4/1 5/5/1
f 2/2/1 6/2/1 4/4/1
f 6/2/1 7/4/1 4/4/1
f 4/4/1 8/6/1 5/5/1
f 5/5/1 8/6/1 9/7/1
f 8/6/1 10/8/1 9/7/1
f 7/4/1 6/2/1 11/4/1
f 8/6/1 12/6/1 10/8/1
f 12/6/1 13/8/1 10/8/1
f 13/8/1 12/6/1 14/8/1
f 12/6/1 15/6/1 14/8/1
f 14/8/1 15/6/1 16/7/1
f 15/6/1 17/5/1 16/7/1
f 15/6/1 11/4/1 17/5/1
f 6/2/1 18/2/1 11/4/1
f 11/4/1 19/3/1 17/5/1
f 11/4/1 18/2/1 19/3/1
f 18/2/1 20/1/1 19/3/1
f 21/9/2 22/1/2 23/10/2
f 24/11/2 21/9/2 23/10/2
f 23/10/2 25/10/2 24/11/2
f 25/10/2 26/11/2 24/11/2
f 24/11/2 27/11/2 21/9/2
f 27/11/2 28/9/2 21/9/2
f 26/11/2 25/10/2 29/11/2
f 28/9/2 27/11/2 30/9/2
f 25/10/2 31/10/2 29/11/2
f 27/11/2 32/11/2 30/9/2
f 33/9/2 29/11/2 31/10/2
f 34/1/2 33/9/2 31/10/2
f 35/11/2 29/11/2 33/9/2
f 36/9/2 35/11/2 33/9/2
f 35/11/2 36/9/2 37/9/2
f 38/11/2 35/11/2 37/9/2
f 30/9/2 32/11/2 39/10/2
f 40/1/2 30/9/2 39/10/2
f 41/10/2 39/10/2 32/11/2
f 42/11/2 41/10/2 32/11/2
f 41/10/2 42/11/2 38/11/2
f 43/10/2 41/10/2 38/11/2
f 38/11/2 37/9/2 43/10/2
f 37/9/2 44/1/2 43/10/2
f 45/12/3 46/13/3 47/6/3
f 48/4/3 45/12/3 47/6/3
f 49/5/4 50/7/4 51/14/4
f 52/15/4 49/5/4 51/14/4
f 53/3/4 49/5/4 52/15/4
f 51/14/4 54/14/4 52/15/4
f 54/14/4 55/15/4 52/15/4
f 56/16/4 53/3/4 52/15/4
f 57/1/4 53/3/4 56/16/4
f 58/10/4 57/1/4 56/16/4
f 55/15/4 54/14/4 59/15/4
f 56/16/4 60/16/4 58/10/4
f 60/16/4 61/10/4 58/10/4
f 61/10/4 60/16/4 62/10/4
f 60/16/4 63/16/4 62/10/4
f 64/1/4 62/10/4 63/16/4
f 65/3/4 64/1/4 63/16/4
f 65/3/4 63/16/4 59/15/4
f 54/14/4 66/14/4 59/15/4
f 67/5/4 65/3/4 59/15/4
f 67/5/4 59/15/4 66/14/4
f 68/7/4 67/5/4 66/14/4
f 69/16/5 70/15/5 71/12/5
f 70/15/5 72/13/5 71/12/5
f 71/12/5 73/12/5 74/11/5
f 73/12/5 75/11/5 74/11/5
f 75/11/5 73/12/5 76/11/5
f 73/12/5 77/12/5 76/11/5
f 78/15/5 79/16/5 77/12/5
f 80/13/5 78/15/5 77/12/5
f 81/17/5 82/17/5 72/13/5
f 82/17/5 83/17/5 80/13/5
f 82/17/5 84/13/5 72/13/5
f 84/13/5 82/17/5 80/13/5
f 85/11/3 86/11/3 45/12/3
f 86/11/3 87/12/3 45/12/3
f 87/12/3 86/11/3 88/12/3
f 86/11/3 89/11/3 88/12/3
f 90/4/6 91/4/6 92/12/6
f 91/4/6 93/12/6 92/12/6
f 93/12/6 91/4/6 94/12/6
f 91/4/6 95/4/6 94/12/6
f 92/12/6 96/12/6 97/16/6
f 96/12/6 98/16/6 97/16/6
f 98/16/6 96/12/6 99/16/6
f 96/12/6 100/12/6 99/16/6
f 101/12/6 94/12/6 102/16/6
f 103/16/6 101/12/6 102/16/6
f 101/12/6 103/16/6 104/16/6
f 105/12/6 101/12/6 104/16/6
f 106/4/6 107/4/6 100/12/6
f 108/4/6 106/4/6 105/12/6
f 109/12/6 106/4/6 100/12/6
f 106/4/6 109/12/6 105/12/6
f 110/15/2 111/15/2 112/13/2
f 111/15/2 113/13/2 112/13/2
f 113/13/2 111/15/2 114/13/2
f 111/15/2 115/15/2 114/13/2
f 112/13/2 116/13/2 117/6/2
f 116/13/2 118/6/2 117/6/2
f 118/6/2 116/13/2 119/6/2
f 116/13/2 120/13/2 119/6/2
f 121/13/2 114/13/2 122/6/2
f 123/6/2 121/13/2 122/6/2
f 121/13/2 123/6/2 124/6/2
f 125/13/2 121/13/2 124/6/2
f 126/15/2 127/15/2 120/13/2
f 128/15/2 126/15/2 125/13/2
f 129/13/2 126/15/2 120/13/2
f 126/15/2 129/13/2 125/13/2
f 46/13/3 130/13/3 131/17/3
f 130/13/3 132/17/3 131/17/3
f 132/17/3 130/13/3 133/17/3
f 130/13/3 134/13/3 133/17/3
f 135/12/4 136/4/4 137/6/4
f 138/13/4 135/12/4 137/6/4
f 139/7/3 140/5/3 141/14/3
f 140/5/3 142/15/3 141/14/3
f 140/5/3 143/3/3 142/15/3
f 144/14/3 141/14/3 142/15/3
f 145/15/3 144/14/3 142/15/3
f 143/3/3 146/16/3 142/15/3
f 143/3/3 147/1/3 146/16/3
f 147/1/3 148/10/3 146/16/3
f 144/14/3 145/15/3 149/15/3
f 150/16/3 146/16/3 148/10/3
f 151/10/3 150/16/3 148/10/3
f 150/16/3 151/10/3 152/10/3
f 153/16/3 150/16/3 152/10/3
f 152/10/3 154/1/3 153/16/3
f 154/1/3 155/3/3 153/16/3
f 153/16/3 155/3/3 149/15/3
f 156/14/3 144/14/3 149/15/3
f 155/3/3 157/5/3 149/15/3
f 149/15/3 157/5/3 156/14/3
f 157/5/3 158/7/3 156/14/3
f 159/11/4 160/11/4 135/12/4
f 161/12/4 159/11/4 135/12/4
f 159/11/4 161/12/4 162/12/4
f 163/11/4 159/11/4 162/12/4
f 164/11/4 165/2/4 166/4/4
f 167/12/4 164/11/4 166/4/4
f 168/13/4 169/6/4 170/8/4
f 171/17/4 168/13/4 170/8/4
f 172/13/4 138/13/4 173/17/4
f 174/17/4 172/13/4 173/17/4
f 172/13/4 174/17/4 175/17/4
f 176/13/4 172/13/4 175/17/4
f 177/2/5 178/1/5 179/3/5
f 180/4/5 177/2/5 179/3/5
f 180/4/5 179/3/5 181/5/5
f 182/2/5 177/2/5 180/4/5
f 183/4/5 182/2/5 180/4/5
f 184/6/5 180/4/5 181/5/5
f 184/6/5 181/5/5 185/7/5
f 186/8/5 184/6/5 185/7/5
f 182/2/5 183/4/5 187/4/5
f 188/6/5 184/6/5 186/8/5
f 189/8/5 188/6/5 186/8/5
f 188/6/5 189/8/5 190/8/5
f 191/6/5 188/6/5 190/8/5
f 191/6/5 190/8/5 192/7/5
f 193/5/5 191/6/5 192/7/5
f 187/4/5 191/6/5 193/5/5
f 194/2/5 182/2/5 187/4/5
f 195/3/5 187/4/5 193/5/5
f 194/2/5 187/4/5 195/3/5
f 196/1/5 194/2/5 195/3/5
f 88/12/3 197/4/3 198/6/3
f 134/13/3 88/12/3 198/6/3
f 199/15/1 200/16/1 201/12/1
f 202/13/1 199/15/1 201/12/1
f 203/12/1 201/12/1 204/11/1
f 205/11/1 203/12/1 204/11/1
f 203/12/1 205/11/1 206/11/1
f 207/12/1 203/12/1 206/11/1
f 208/16/1 209/15/1 207/12/1
f 209/15/1 210/13/1 207/12/1
f 211/17/1 212/17/1 202/13/1
f 213/17/1 211/17/1 210/13/1
f 214/13/1 211/17/1 202/13/1
f 211/17/1 214/13/1 210/13/1
f 215/16/1 216/10/1 217/11/1
f 218/12/1 215/16/1 217/11/1
f 219/14/1 220/15/1 221/13/1
f 222/17/1 219/14/1 221/13/1
f 162/12/4 176/13/4 223/6/4
f 224/4/4 162/12/4 223/6/4
f 225/16/1 226/12/1 227/11/1
f 228/10/1 225/16/1 227/11/1
f 229/11/4 230/12/4 231/4/4
f 232/2/4 229/11/4 231/4/4
f 233/13/4 234/17/4 235/8/4
f 236/6/4 233/13/4 235/8/4
f 237/14/1 238/17/1 239/13/1
f 240/15/1 237/14/1 239/13/1
f 241/17/6 242/18/6 243/17/6
f 242/18/6 241/17/6 244/17/6
f 242/18/6 245/18/6 243/17/6
f 245/18/6 246/7/6 243/17/6
f 246/7/6 247/14/6 243/17/6
f 248/18/6 242/18/6 244/17/6
f 249/7/6 248/18/6 244/17/6
f 250/14/6 249/7/6 244/17/6
f 251/17/6 243/17/6 247/14/6
f 252/14/6 251/17/6 247/14/6
f 251/17/6 252/14/6 253/14/6
f 244/17/6 254/17/6 250/14/6
f 254/17/6 255/14/6 250/14/6
f 255/14/6 254/17/6 256/14/6
f 257/17/6 251/17/6 253/14/6
f 254/17/6 258/17/6 256/14/6
f 253/14/6 259/7/6 257/17/6
f 259/7/6 260/18/6 257/17/6
f 261/7/6 256/14/6 258/17/6
f 262/18/6 261/7/6 258/17/6
f 260/18/6 263/18/6 257/17/6
f 263/18/6 262/18/6 258/17/6
f 263/18/6 264/17/6 257/17/6
f 264/17/6 263/18/6 258/17/6
